<mxfile host="app.diagrams.net" modified="2021-03-02T03:03:34.571Z" agent="5.0 (Windows NT 10.0; Win64; x64) AppleWebKit/537.36 (KHTML, like Gecko) Chrome/88.0.4324.150 Safari/537.36 OPR/74.0.3911.160" etag="QfDFXU9AvOthvkMksqkN" version="14.4.2" type="github">
  <diagram id="C5RBs43oDa-KdzZeNtuy" name="Page-1">
    <mxGraphModel dx="1382" dy="764" grid="1" gridSize="10" guides="1" tooltips="1" connect="1" arrows="1" fold="1" page="1" pageScale="1" pageWidth="827" pageHeight="1169" math="0" shadow="0">
      <root>
        <mxCell id="WIyWlLk6GJQsqaUBKTNV-0" />
        <mxCell id="WIyWlLk6GJQsqaUBKTNV-1" parent="WIyWlLk6GJQsqaUBKTNV-0" />
        <mxCell id="uLEaAYNok_SbW6x_Q64E-0" value="Accessories Ordering System" style="ellipse;whiteSpace=wrap;html=1;aspect=fixed;direction=south;" vertex="1" parent="WIyWlLk6GJQsqaUBKTNV-1">
          <mxGeometry x="310" y="600" width="110" height="110" as="geometry" />
        </mxCell>
        <mxCell id="uLEaAYNok_SbW6x_Q64E-1" value="Shop Owner" style="rounded=0;whiteSpace=wrap;html=1;" vertex="1" parent="WIyWlLk6GJQsqaUBKTNV-1">
          <mxGeometry x="170" y="460" width="120" height="60" as="geometry" />
        </mxCell>
        <mxCell id="uLEaAYNok_SbW6x_Q64E-2" value="Payroll System" style="rounded=0;whiteSpace=wrap;html=1;" vertex="1" parent="WIyWlLk6GJQsqaUBKTNV-1">
          <mxGeometry x="520" y="400" width="120" height="60" as="geometry" />
        </mxCell>
        <mxCell id="uLEaAYNok_SbW6x_Q64E-3" value="Accessories Inventory System" style="rounded=0;whiteSpace=wrap;html=1;" vertex="1" parent="WIyWlLk6GJQsqaUBKTNV-1">
          <mxGeometry y="625" width="120" height="60" as="geometry" />
        </mxCell>
        <mxCell id="uLEaAYNok_SbW6x_Q64E-4" value="Accessories Deliverer" style="rounded=0;whiteSpace=wrap;html=1;" vertex="1" parent="WIyWlLk6GJQsqaUBKTNV-1">
          <mxGeometry x="305" y="840" width="120" height="60" as="geometry" />
        </mxCell>
        <mxCell id="uLEaAYNok_SbW6x_Q64E-5" value="Accessories Staff&amp;nbsp;" style="rounded=0;whiteSpace=wrap;html=1;" vertex="1" parent="WIyWlLk6GJQsqaUBKTNV-1">
          <mxGeometry x="640" y="625" width="120" height="60" as="geometry" />
        </mxCell>
        <mxCell id="uLEaAYNok_SbW6x_Q64E-6" value="" style="endArrow=classic;html=1;exitX=0.227;exitY=0.091;exitDx=0;exitDy=0;entryX=0;entryY=0;entryDx=0;entryDy=0;exitPerimeter=0;" edge="1" parent="WIyWlLk6GJQsqaUBKTNV-1" source="uLEaAYNok_SbW6x_Q64E-0" target="uLEaAYNok_SbW6x_Q64E-5">
          <mxGeometry width="50" height="50" relative="1" as="geometry">
            <mxPoint x="390" y="720" as="sourcePoint" />
            <mxPoint x="440" y="670" as="targetPoint" />
          </mxGeometry>
        </mxCell>
        <mxCell id="uLEaAYNok_SbW6x_Q64E-7" value="accessories order" style="edgeLabel;html=1;align=center;verticalAlign=middle;resizable=0;points=[];" vertex="1" connectable="0" parent="uLEaAYNok_SbW6x_Q64E-6">
          <mxGeometry x="-0.135" y="2" relative="1" as="geometry">
            <mxPoint as="offset" />
          </mxGeometry>
        </mxCell>
        <mxCell id="uLEaAYNok_SbW6x_Q64E-8" value="" style="endArrow=classic;html=1;exitX=0;exitY=0.25;exitDx=0;exitDy=0;entryX=0.355;entryY=0.027;entryDx=0;entryDy=0;entryPerimeter=0;" edge="1" parent="WIyWlLk6GJQsqaUBKTNV-1" source="uLEaAYNok_SbW6x_Q64E-5" target="uLEaAYNok_SbW6x_Q64E-0">
          <mxGeometry width="50" height="50" relative="1" as="geometry">
            <mxPoint x="390" y="720" as="sourcePoint" />
            <mxPoint x="440" y="670" as="targetPoint" />
          </mxGeometry>
        </mxCell>
        <mxCell id="uLEaAYNok_SbW6x_Q64E-9" value="delivery request" style="edgeLabel;html=1;align=center;verticalAlign=middle;resizable=0;points=[];" vertex="1" connectable="0" parent="uLEaAYNok_SbW6x_Q64E-8">
          <mxGeometry x="-0.2524" y="-1" relative="1" as="geometry">
            <mxPoint x="-13.63" y="3.52" as="offset" />
          </mxGeometry>
        </mxCell>
        <mxCell id="uLEaAYNok_SbW6x_Q64E-10" value="" style="endArrow=classic;html=1;exitX=-0.025;exitY=0.65;exitDx=0;exitDy=0;exitPerimeter=0;entryX=0.582;entryY=0.009;entryDx=0;entryDy=0;entryPerimeter=0;" edge="1" parent="WIyWlLk6GJQsqaUBKTNV-1" source="uLEaAYNok_SbW6x_Q64E-5" target="uLEaAYNok_SbW6x_Q64E-0">
          <mxGeometry width="50" height="50" relative="1" as="geometry">
            <mxPoint x="640" y="672" as="sourcePoint" />
            <mxPoint x="420" y="672" as="targetPoint" />
          </mxGeometry>
        </mxCell>
        <mxCell id="uLEaAYNok_SbW6x_Q64E-11" value="accessories status update" style="edgeLabel;html=1;align=center;verticalAlign=middle;resizable=0;points=[];" vertex="1" connectable="0" parent="uLEaAYNok_SbW6x_Q64E-10">
          <mxGeometry x="-0.2007" y="1" relative="1" as="geometry">
            <mxPoint x="-16.16" y="-1.7999999999999998" as="offset" />
          </mxGeometry>
        </mxCell>
        <mxCell id="uLEaAYNok_SbW6x_Q64E-12" value="" style="endArrow=classic;html=1;exitX=0;exitY=1;exitDx=0;exitDy=0;entryX=0.773;entryY=0.064;entryDx=0;entryDy=0;entryPerimeter=0;" edge="1" parent="WIyWlLk6GJQsqaUBKTNV-1" source="uLEaAYNok_SbW6x_Q64E-5" target="uLEaAYNok_SbW6x_Q64E-0">
          <mxGeometry width="50" height="50" relative="1" as="geometry">
            <mxPoint x="638" y="700" as="sourcePoint" />
            <mxPoint x="400" y="693" as="targetPoint" />
            <Array as="points" />
          </mxGeometry>
        </mxCell>
        <mxCell id="uLEaAYNok_SbW6x_Q64E-13" value="payment request" style="edgeLabel;html=1;align=center;verticalAlign=middle;resizable=0;points=[];" vertex="1" connectable="0" parent="uLEaAYNok_SbW6x_Q64E-12">
          <mxGeometry x="-0.3364" y="-1" relative="1" as="geometry">
            <mxPoint x="-45" y="0.990000000000002" as="offset" />
          </mxGeometry>
        </mxCell>
        <mxCell id="uLEaAYNok_SbW6x_Q64E-14" value="" style="endArrow=classic;html=1;entryX=0.75;entryY=0;entryDx=0;entryDy=0;" edge="1" parent="WIyWlLk6GJQsqaUBKTNV-1" source="uLEaAYNok_SbW6x_Q64E-0" target="uLEaAYNok_SbW6x_Q64E-4">
          <mxGeometry width="50" height="50" relative="1" as="geometry">
            <mxPoint x="390" y="720" as="sourcePoint" />
            <mxPoint x="440" y="670" as="targetPoint" />
          </mxGeometry>
        </mxCell>
        <mxCell id="uLEaAYNok_SbW6x_Q64E-16" value="delivery request&amp;nbsp;" style="edgeLabel;html=1;align=center;verticalAlign=middle;resizable=0;points=[];rotation=0;" vertex="1" connectable="0" parent="uLEaAYNok_SbW6x_Q64E-14">
          <mxGeometry x="-0.2439" y="-2" relative="1" as="geometry">
            <mxPoint x="34.17" y="11.03" as="offset" />
          </mxGeometry>
        </mxCell>
        <mxCell id="uLEaAYNok_SbW6x_Q64E-15" value="delivery confirmation" style="endArrow=classic;html=1;exitX=0.25;exitY=0;exitDx=0;exitDy=0;entryX=1.009;entryY=0.6;entryDx=0;entryDy=0;entryPerimeter=0;" edge="1" parent="WIyWlLk6GJQsqaUBKTNV-1" source="uLEaAYNok_SbW6x_Q64E-4" target="uLEaAYNok_SbW6x_Q64E-0">
          <mxGeometry x="-0.1678" y="43" width="50" height="50" relative="1" as="geometry">
            <mxPoint x="390" y="720" as="sourcePoint" />
            <mxPoint x="440" y="670" as="targetPoint" />
            <mxPoint as="offset" />
          </mxGeometry>
        </mxCell>
        <mxCell id="uLEaAYNok_SbW6x_Q64E-17" value="accessories item orders" style="endArrow=classic;html=1;exitX=0.218;exitY=0.936;exitDx=0;exitDy=0;exitPerimeter=0;entryX=1;entryY=0;entryDx=0;entryDy=0;" edge="1" parent="WIyWlLk6GJQsqaUBKTNV-1">
          <mxGeometry width="50" height="50" relative="1" as="geometry">
            <mxPoint x="317.03999999999996" y="625.98" as="sourcePoint" />
            <mxPoint x="120" y="627" as="targetPoint" />
          </mxGeometry>
        </mxCell>
        <mxCell id="uLEaAYNok_SbW6x_Q64E-18" value="accessories item availability&amp;nbsp;&amp;nbsp;" style="endArrow=classic;html=1;exitX=1;exitY=1;exitDx=0;exitDy=0;entryX=0.782;entryY=0.936;entryDx=0;entryDy=0;entryPerimeter=0;" edge="1" parent="WIyWlLk6GJQsqaUBKTNV-1" source="uLEaAYNok_SbW6x_Q64E-3" target="uLEaAYNok_SbW6x_Q64E-0">
          <mxGeometry width="50" height="50" relative="1" as="geometry">
            <mxPoint x="320" y="685" as="sourcePoint" />
            <mxPoint x="210" y="780" as="targetPoint" />
          </mxGeometry>
        </mxCell>
        <mxCell id="uLEaAYNok_SbW6x_Q64E-19" value="product content" style="endArrow=classic;startArrow=classic;html=1;exitX=1;exitY=1;exitDx=0;exitDy=0;entryX=0.082;entryY=0.745;entryDx=0;entryDy=0;entryPerimeter=0;" edge="1" parent="WIyWlLk6GJQsqaUBKTNV-1" source="uLEaAYNok_SbW6x_Q64E-1" target="uLEaAYNok_SbW6x_Q64E-0">
          <mxGeometry width="50" height="50" relative="1" as="geometry">
            <mxPoint x="390" y="720" as="sourcePoint" />
            <mxPoint x="440" y="670" as="targetPoint" />
          </mxGeometry>
        </mxCell>
        <mxCell id="uLEaAYNok_SbW6x_Q64E-20" value="payroll deduction&lt;br&gt;&amp;nbsp;registration request" style="endArrow=classic;html=1;exitX=0.045;exitY=0.309;exitDx=0;exitDy=0;exitPerimeter=0;entryX=0;entryY=1;entryDx=0;entryDy=0;" edge="1" parent="WIyWlLk6GJQsqaUBKTNV-1" source="uLEaAYNok_SbW6x_Q64E-0" target="uLEaAYNok_SbW6x_Q64E-2">
          <mxGeometry x="0.3923" y="2" width="50" height="50" relative="1" as="geometry">
            <mxPoint x="390" y="720" as="sourcePoint" />
            <mxPoint x="440" y="670" as="targetPoint" />
            <mxPoint as="offset" />
          </mxGeometry>
        </mxCell>
        <mxCell id="uLEaAYNok_SbW6x_Q64E-21" value="payment request" style="endArrow=classic;html=1;exitX=0;exitY=0;exitDx=0;exitDy=0;entryX=0.75;entryY=1;entryDx=0;entryDy=0;" edge="1" parent="WIyWlLk6GJQsqaUBKTNV-1" source="uLEaAYNok_SbW6x_Q64E-0" target="uLEaAYNok_SbW6x_Q64E-2">
          <mxGeometry width="50" height="50" relative="1" as="geometry">
            <mxPoint x="390" y="710" as="sourcePoint" />
            <mxPoint x="440" y="660" as="targetPoint" />
          </mxGeometry>
        </mxCell>
        <mxCell id="uLEaAYNok_SbW6x_Q64E-23" value="payroll deduction response" style="endArrow=classic;html=1;exitX=0;exitY=0;exitDx=0;exitDy=0;entryX=0;entryY=0.5;entryDx=0;entryDy=0;" edge="1" parent="WIyWlLk6GJQsqaUBKTNV-1" source="uLEaAYNok_SbW6x_Q64E-2" target="uLEaAYNok_SbW6x_Q64E-0">
          <mxGeometry x="-0.2237" y="-12" width="50" height="50" relative="1" as="geometry">
            <mxPoint x="390" y="710" as="sourcePoint" />
            <mxPoint x="440" y="660" as="targetPoint" />
            <mxPoint as="offset" />
          </mxGeometry>
        </mxCell>
      </root>
    </mxGraphModel>
  </diagram>
</mxfile>
